HIERARCHY
ROOT Hips
{
	OFFSET -0.001795 -0.223333 0.028219
	CHANNELS 6 Xposition Yposition Zposition Zrotation Yrotation Xrotation 
	JOINT LeftUpLeg
	{
		OFFSET 0.069520 -0.091406 -0.006815
		CHANNELS 3 Zrotation Yrotation Xrotation
		JOINT LeftLeg
		{
			OFFSET 0.034277 -0.375199 -0.004496
			CHANNELS 3 Zrotation Yrotation Xrotation
			JOINT LeftFoot
			{
				OFFSET -0.013596 -0.397961 -0.043693
				CHANNELS 3 Zrotation Yrotation Xrotation
				JOINT LeftToe
				{
					OFFSET 0.026358 -0.055791 0.119288
					CHANNELS 3 Zrotation Yrotation Xrotation
					End Site
					{
						OFFSET 0.000000 0.000000 0.000000
					}
				}
			}
		}
	}
	JOINT RightUpLeg
	{
		OFFSET -0.067670 -0.090522 -0.004320
		CHANNELS 3 Zrotation Yrotation Xrotation
		JOINT RightLeg
		{
			OFFSET -0.038290 -0.382569 -0.008850
			CHANNELS 3 Zrotation Yrotation Xrotation
			JOINT RightFoot
			{
				OFFSET 0.015774 -0.398415 -0.042312
				CHANNELS 3 Zrotation Yrotation Xrotation
				JOINT RightToe
				{
					OFFSET -0.025372 -0.048144 0.123348
					CHANNELS 3 Zrotation Yrotation Xrotation
					End Site
					{
						OFFSET 0.000000 0.000000 0.000000
					}
				}
			}
		}
	}
	JOINT Spine
	{
		OFFSET -0.002533 0.108963 -0.026696
		CHANNELS 3 Zrotation Yrotation Xrotation
		JOINT Spine1
		{
			OFFSET 0.005487 0.135180 0.001092
			CHANNELS 3 Zrotation Yrotation Xrotation
			JOINT Spine2
			{
				OFFSET 0.001457 0.052922 0.025425
				CHANNELS 3 Zrotation Yrotation Xrotation
				JOINT Neck
				{
					OFFSET -0.002778 0.213870 -0.042857
					CHANNELS 3 Zrotation Yrotation Xrotation
					JOINT Head
					{
						OFFSET 0.005152 0.064970 0.051349
						CHANNELS 3 Zrotation Yrotation Xrotation
						End Site
						{
							OFFSET 0.000000 0.000000 0.000000
						}
					}
				}
				JOINT LeftShoulder
				{
					OFFSET 0.078845 0.121749 -0.034090
					CHANNELS 3 Zrotation Yrotation Xrotation
					JOINT LeftArm
					{
						OFFSET 0.090977 0.030469 -0.008868
						CHANNELS 3 Zrotation Yrotation Xrotation
						JOINT LeftForeArm
						{
							OFFSET 0.259612 -0.012772 -0.027456
							CHANNELS 3 Zrotation Yrotation Xrotation
							JOINT LeftHand
							{
								OFFSET 0.249234 0.008986 -0.001171
								CHANNELS 3 Zrotation Yrotation Xrotation
								End Site
								{
									OFFSET 0.000000 0.000000 0.000000
								}
							}
						}
					}
				}
				JOINT RightShoulder
				{
					OFFSET -0.081759 0.118833 -0.038615
					CHANNELS 3 Zrotation Yrotation Xrotation
					JOINT RightArm
					{
						OFFSET -0.096012 0.032551 -0.009143
						CHANNELS 3 Zrotation Yrotation Xrotation
						JOINT RightForeArm
						{
							OFFSET -0.253742 -0.013329 -0.021401
							CHANNELS 3 Zrotation Yrotation Xrotation
							JOINT RightHand
							{
								OFFSET -0.255298 0.007772 -0.005559
								CHANNELS 3 Zrotation Yrotation Xrotation
								End Site
								{
									OFFSET 0.000000 0.000000 0.000000
								}
							}
						}
					}
				}
			}
		}
	}
}
MOTION
Frames: 13
Frame Time: 0.050000
-0.572483 0.930415 0.209952 4.867000 58.097448 3.014699 0.173566 -0.181415 -1.654374 -8.188404 -2.384743 22.345604 11.804513 17.635574 3.632299 0.000000 0.000000 0.000000 2.597783 -0.434306 3.064532 -7.525614 0.733007 -5.577880 -1.088294 -9.855935 -7.521895 0.000000 0.000000 0.000000 0.122727 -0.161482 3.685748 -2.373401 1.010996 -2.742765 2.848473 1.149882 11.055974 -1.970376 6.843279 -25.121914 0.000000 0.000000 0.000000 -18.053611 -0.735612 -10.059362 -55.908177 -0.594601 -6.115928 -1.673191 -45.086156 -2.731568 0.000000 0.000000 0.000000 12.396068 2.951308 6.058698 55.901317 15.404133 1.877356 -4.987572 27.898633 1.042428 0.000000 0.000000 0.000000 
-0.583776 0.926113 0.203755 3.414422 61.283315 2.533816 0.154035 -0.211677 2.590078 -4.107883 -1.066906 11.913274 11.820991 13.672727 -0.997982 0.000000 0.000000 0.000000 3.785917 -0.263559 2.398260 -7.481147 0.600175 -6.823029 -1.997914 -12.853189 -6.617612 0.000000 0.000000 0.000000 0.022756 -0.093539 2.542462 -1.091731 0.345626 -2.129369 2.503317 -0.097586 10.955739 -1.160326 6.504350 -24.127997 0.000000 0.000000 0.000000 -17.340132 -0.497926 -10.028804 -56.872619 -1.966305 -5.834036 -0.710500 -46.023608 -3.448623 0.000000 0.000000 0.000000 13.124830 2.586672 6.254272 57.299542 15.089134 1.941276 -6.029170 27.344689 0.785645 0.000000 0.000000 0.000000 
-0.593314 0.922267 0.198315 1.056409 64.590749 1.350144 0.738194 -0.522293 5.243948 -1.137827 -0.271884 1.412713 10.530081 11.682522 0.337524 0.000000 0.000000 0.000000 4.852365 0.086143 0.626688 -6.823434 0.645098 -6.178957 -2.789911 -16.242043 -6.601278 0.000000 0.000000 0.000000 -0.066078 -0.068621 2.012161 -0.163711 -0.169838 -1.806848 3.081302 -1.420737 10.692428 -1.097689 6.498430 -23.295564 0.000000 0.000000 0.000000 -17.242501 -1.084022 -9.870730 -56.958444 -3.267243 -5.290854 -0.489122 -46.591945 -3.653680 0.000000 0.000000 0.000000 15.257941 1.214741 6.396695 57.090855 15.120060 1.413261 -6.837943 27.335797 0.696133 0.000000 0.000000 0.000000 
-0.601321 0.919854 0.193814 -0.239906 66.635879 0.770567 1.059619 -0.798186 6.702051 -0.115335 -0.287513 -3.818396 9.693964 10.056526 -0.021101 0.000000 0.000000 0.000000 5.471211 0.274249 -0.372798 -6.837811 0.636052 -6.402673 -3.444350 -18.240815 -6.013225 0.000000 0.000000 0.000000 -0.330290 -0.053815 1.631722 0.631421 -0.579219 -1.646454 3.162067 -1.233457 10.435786 -1.327403 6.751489 -23.231323 0.000000 0.000000 0.000000 -16.697782 -1.870264 -9.705194 -57.783710 -3.672517 -5.299923 -0.373176 -47.544608 -4.162212 0.000000 0.000000 0.000000 15.519410 0.878649 6.608126 58.201515 14.508056 1.336115 -7.301277 27.566378 0.678414 0.000000 0.000000 0.000000 
-0.607647 0.919798 0.190571 -0.605519 68.170166 0.369604 1.428063 -0.880609 6.370144 -0.134552 -0.340541 -4.299191 9.023912 8.821370 -0.341804 0.000000 0.000000 0.000000 5.539302 0.350731 -0.893834 -6.704676 0.678598 -5.994432 -3.941904 -19.737753 -5.600281 0.000000 0.000000 0.000000 -0.667502 -0.057499 1.777372 0.900578 -0.716696 -1.674671 3.231979 -1.195262 10.218305 -1.801591 6.981289 -22.479585 0.000000 0.000000 0.000000 -15.819929 -1.692167 -9.547526 -58.957063 -3.396579 -5.946826 -2.276975 -47.643123 -3.534063 0.000000 0.000000 0.000000 15.972223 0.932360 7.066326 59.095619 14.591647 1.425451 -7.462006 27.049907 0.617423 0.000000 0.000000 0.000000 
-0.612604 0.920487 0.188307 -0.683523 68.659177 0.139096 1.629779 -0.889721 5.939071 -0.343616 -0.354771 -3.999668 8.722793 8.394556 -0.353598 0.000000 0.000000 0.000000 5.583063 0.318116 -0.639202 -6.769950 0.605634 -6.776630 -4.345820 -20.004706 -4.643853 0.000000 0.000000 0.000000 -1.022440 -0.054120 1.591438 0.757313 -0.679366 -1.639342 3.636223 -0.994694 9.860739 -1.973322 7.032361 -21.831556 0.000000 0.000000 0.000000 -15.344072 -1.241270 -9.573091 -59.360211 -2.501741 -6.638839 -4.591397 -45.923202 -2.405392 0.000000 0.000000 0.000000 15.081239 1.439014 7.074269 60.415569 13.842829 1.588349 -6.205882 28.046321 0.889279 0.000000 0.000000 0.000000 
-0.616303 0.921124 0.186751 -0.466225 68.652070 0.353425 1.731925 -0.802538 5.003418 -0.677812 -0.335482 -2.842282 8.708370 8.301620 -0.462639 0.000000 0.000000 0.000000 5.462436 0.285868 -0.466006 -6.731533 0.498059 -7.639206 -4.588667 -19.761819 -3.827333 0.000000 0.000000 0.000000 -1.329160 -0.055966 1.526011 0.642046 -0.613984 -1.728560 3.769483 -0.392644 9.385558 -1.948177 6.950397 -20.990976 0.000000 0.000000 0.000000 -15.375843 -1.272270 -9.723365 -59.346678 -0.762544 -7.436140 -6.104997 -42.111650 -1.532015 0.000000 0.000000 0.000000 15.489829 1.138754 7.200033 60.236753 14.182369 1.626773 -6.061550 28.108075 0.942436 0.000000 0.000000 0.000000 
-0.619205 0.921463 0.185365 -0.747169 68.829260 -0.185963 1.991587 -0.802942 4.492938 -0.933297 -0.325706 -1.805759 8.725774 8.138747 -0.696470 0.000000 0.000000 0.000000 5.272938 0.247323 -0.291824 -6.200141 0.435616 -7.780837 -4.683002 -19.817744 -3.607329 0.000000 0.000000 0.000000 -1.363656 -0.059930 1.688014 0.628510 -0.475246 -2.204519 3.823876 -0.944384 9.509702 -1.628930 6.758157 -20.626043 0.000000 0.000000 0.000000 -15.743231 -0.947083 -10.002989 -59.190713 0.933086 -8.172992 -6.473515 -37.942058 -0.999223 0.000000 0.000000 0.000000 15.938087 1.615935 7.628477 59.445350 14.582720 1.459409 -5.990437 28.482756 0.961228 0.000000 0.000000 0.000000 
-0.621400 0.921500 0.183902 -0.655064 68.194879 -0.180616 1.995478 -0.728440 3.877970 -1.215806 -0.319217 -0.706973 9.104966 8.633137 -0.792579 0.000000 0.000000 0.000000 5.155474 0.254761 -0.396116 -6.111618 0.416580 -7.836854 -4.578863 -19.155944 -3.459641 0.000000 0.000000 0.000000 -1.392676 -0.055702 1.479657 0.566332 -0.460405 -2.120529 3.967179 -0.487825 9.123877 -1.453657 6.613785 -20.347984 0.000000 0.000000 0.000000 -16.063662 -0.885334 -10.190181 -59.012714 2.819363 -8.942265 -7.317776 -33.303871 -0.413103 0.000000 0.000000 0.000000 16.317088 1.301114 7.567512 58.448329 14.485508 1.136120 -5.566454 28.948757 1.103098 0.000000 0.000000 0.000000 
-0.622823 0.921251 0.182388 -0.604680 67.544285 -0.286708 2.054285 -0.687323 3.405309 -1.622395 -0.332899 0.367707 9.552923 9.196922 -0.939703 0.000000 0.000000 0.000000 4.836327 0.270969 -0.682361 -5.648782 0.428366 -7.323557 -4.328556 -18.572944 -3.788051 0.000000 0.000000 0.000000 -1.220949 -0.049546 1.338921 0.556270 -0.543085 -1.725867 3.931698 -0.147452 8.490304 -1.374361 6.420013 -19.712277 0.000000 0.000000 0.000000 -16.673154 -0.614095 -10.553612 -58.714909 4.631935 -9.543888 -8.046560 -30.198053 -0.035556 0.000000 0.000000 0.000000 16.676716 1.756825 7.907328 57.558485 14.651606 0.960457 -6.330169 29.038020 0.936077 0.000000 0.000000 0.000000 
-0.623482 0.921059 0.181041 -0.325123 67.067051 -0.504480 1.918865 -0.664714 3.552266 -1.839010 -0.341105 1.019586 9.851926 9.614440 -1.007781 0.000000 0.000000 0.000000 4.269962 0.211381 -0.588623 -4.924119 0.406624 -6.739268 -4.038727 -18.115824 -4.300272 0.000000 0.000000 0.000000 -1.260267 -0.049868 1.357345 0.777336 -0.739514 -1.256021 3.979318 0.394538 7.884961 -1.315205 6.282845 -19.261201 0.000000 0.000000 0.000000 -17.148891 -0.573459 -10.800874 -58.363605 6.563439 -10.230207 -8.961882 -28.655435 0.273651 0.000000 0.000000 0.000000 16.974675 1.658296 7.931512 56.688019 14.480016 0.672726 -7.276604 29.438509 0.790200 0.000000 0.000000 0.000000 
-0.623639 0.921431 0.179939 -0.340368 67.007540 -0.702471 1.715247 -0.647177 3.782718 -1.588363 -0.324795 0.912987 9.810930 9.637455 -0.914417 0.000000 0.000000 0.000000 3.964151 0.228147 -0.947961 -4.457943 0.434006 -5.773917 -3.897577 -18.132777 -4.747307 0.000000 0.000000 0.000000 -1.041518 -0.040741 0.965853 0.831587 -0.656110 -1.624825 3.877722 0.466245 8.094739 -0.798731 5.964137 -18.486704 0.000000 0.000000 0.000000 -17.580084 -1.024490 -10.979290 -58.003633 7.962687 -10.632448 -9.586253 -27.709609 0.420190 0.000000 0.000000 0.000000 17.527386 1.784706 8.306478 55.615523 14.796389 0.477356 -8.183756 29.635254 0.606307 0.000000 0.000000 0.000000 
-0.623620 0.922006 0.178841 -0.400433 67.224021 -0.943733 1.596362 -0.646983 3.977182 -1.400702 -0.315545 0.829713 9.623853 9.438947 -0.838630 0.000000 0.000000 0.000000 3.671135 0.235365 -1.272537 -3.995299 0.436292 -4.807831 -3.837447 -18.381511 -5.128647 0.000000 0.000000 0.000000 -1.128698 -0.038672 0.531984 1.110626 -0.638814 -2.077993 3.885981 0.237259 8.591055 -0.839909 6.001632 -18.275887 0.000000 0.000000 0.000000 -17.694844 -1.117356 -11.087027 -57.730252 8.427090 -10.765531 -10.255012 -27.626278 0.571477 0.000000 0.000000 0.000000 17.793902 2.134814 8.701236 54.964387 14.795819 0.244727 -8.910587 29.910097 0.441397 0.000000 0.000000 0.000000 
